<svg width="164" height="164" viewBox="0 0 164 164" fill="none" xmlns="http://www.w3.org/2000/svg">
<path d="M111.218 96.4816L88.3515 79.3321V44.3982C88.3515 40.8856 85.5123 38.0464 81.9997 38.0464C78.4872 38.0464 75.6479 40.8856 75.6479 44.3982V82.5083C75.6479 84.509 76.5881 86.3956 78.1887 87.5898L103.595 106.645C104.738 107.502 106.073 107.915 107.4 107.915C109.337 107.915 111.243 107.045 112.488 105.368C114.597 102.567 114.025 98.5842 111.218 96.4816Z" fill="#0CD9F4"/>
<path d="M82 0C36.7824 0 0 36.7824 0 82C0 127.218 36.7824 164 82 164C127.218 164 164 127.218 164 82C164 36.7824 127.218 0 82 0ZM82 151.297C43.7947 151.297 12.7033 120.205 12.7033 82C12.7033 43.7947 43.7947 12.7033 82 12.7033C120.212 12.7033 151.297 43.7947 151.297 82C151.297 120.205 120.205 151.297 82 151.297Z" fill="#1A1A1A"/>
</svg>
