<svg width="58" height="58" viewBox="0 0 58 58" fill="none" xmlns="http://www.w3.org/2000/svg">
<g clip-path="url(#clip0)">
<path d="M34.3574 6.39463C33.018 4.42496 31.8362 2.61286 30.7332 0.958335C30.5756 0.721974 30.3392 0.485613 30.1029 0.328039C29.1574 -0.302256 27.8969 0.0128912 27.2666 0.958335C26.2423 2.61286 25.0605 4.34617 23.6424 6.39463C17.4182 15.5339 8.12134 29.3216 8.12134 37.2003C8.12134 42.9518 10.4849 48.1517 14.2667 51.9335C18.0485 55.6365 23.2484 58.0001 28.9999 58.0001C34.7513 58.0001 39.9513 55.6365 43.733 51.8547C47.5148 48.0729 49.8784 42.873 49.8784 37.1215C49.8784 29.2428 40.5815 15.5339 34.3574 6.39463ZM40.8967 49.0184C37.824 52.0911 33.6483 53.9032 28.9999 53.9032C24.3514 53.9032 20.1757 52.0123 17.103 49.0184C14.0304 45.9457 12.2183 41.77 12.2183 37.1215C12.2183 30.5034 21.1212 17.346 27.0302 8.60067C27.7393 7.57644 28.3696 6.55221 28.9999 5.68555C29.6302 6.55221 30.2605 7.57644 30.9695 8.60067C36.8786 17.4248 45.7815 30.5034 45.7815 37.1215C45.7815 41.77 43.8906 45.9457 40.8967 49.0184Z" fill="#0CD9F4"/>
<path d="M41.2119 35.7032C40.1089 35.6244 39.1635 36.4911 39.0847 37.5941C39.0059 39.3274 38.4544 40.9819 37.5877 42.4001C36.7211 43.8183 35.4605 45.0789 33.9635 45.8667C33.0181 46.4182 32.6242 47.6788 33.1757 48.6243C33.806 49.7273 35.0665 50.0424 36.012 49.4909C38.1392 48.3091 39.8726 46.5758 41.0544 44.6061C42.315 42.6365 43.024 40.2729 43.1028 37.8305C43.1816 36.7274 42.315 35.782 41.2119 35.7032Z" fill="#0CD9F4"/>
</g>
<defs>
<clipPath id="clip0">
<rect width="58" height="58" fill="white"/>
</clipPath>
</defs>
</svg>
