<svg width="194" height="454" viewBox="0 0 194 454" fill="none" xmlns="http://www.w3.org/2000/svg">
<path fill-rule="evenodd" clip-rule="evenodd" d="M30.2338 0C13.5361 0 0 15.3277 0 34.2353V118.397C68.0879 152.04 123.455 148.353 194 118.397C194 121.25 194 119.824 194 121.25C123.455 159.765 68.026 159.765 0 121.25V382.294C0 447.912 6.2987 453.618 30.2338 453.618H163.766C192.74 453.618 194 436.5 194 382.294V34.2353C194 15.3277 180.464 0 163.766 0H30.2338Z" fill="#1A1A1A"/>
<path d="M131.591 382.294V417.464C131.567 422.343 130.027 426.333 126.972 429.436C123.941 432.539 119.82 434.279 114.61 434.658L112.798 434.729C107.137 434.729 102.626 433.202 99.2627 430.146C95.8997 427.091 94.1945 422.888 94.1471 417.535V382.294H100.897V417.322C100.897 421.064 101.927 423.977 103.988 426.061C106.048 428.122 108.985 429.152 112.798 429.152C116.658 429.152 119.607 428.122 121.644 426.061C123.704 424.001 124.734 421.099 124.734 417.357V382.294H131.591Z" fill="#EEF3F2"/>
<path d="M168.324 417.559C168.324 420.953 167.724 423.93 166.524 426.487C165.324 429.045 163.603 431.019 161.361 432.408C159.135 433.798 156.577 434.492 153.687 434.492C150.83 434.492 148.28 433.806 146.038 432.432C143.796 431.058 142.059 429.1 140.827 426.558C139.596 424.001 138.972 421.064 138.956 417.748V416.043C138.956 412.648 139.564 409.664 140.78 407.091C142.011 404.501 143.74 402.52 145.967 401.146C148.209 399.757 150.766 399.062 153.64 399.062C156.514 399.062 159.064 399.757 161.29 401.146C163.532 402.52 165.261 404.501 166.476 407.091C167.708 409.664 168.324 412.64 168.324 416.019V417.559ZM161.124 415.996C161.124 412.38 160.477 409.633 159.182 407.754C157.887 405.875 156.04 404.935 153.64 404.935C151.256 404.935 149.416 405.867 148.122 407.73C146.827 409.577 146.172 412.293 146.156 415.877V417.559C146.156 421.08 146.803 423.811 148.098 425.753C149.393 427.695 151.256 428.666 153.687 428.666C156.072 428.666 157.903 427.735 159.182 425.872C160.461 423.993 161.108 421.261 161.124 417.677V415.996Z" fill="#0CD9F4"/>
</svg>
