<svg width="1345" height="700" viewBox="0 0 1345 700" fill="none" xmlns="http://www.w3.org/2000/svg">
<path d="M236.892 190.113C261.708 249.284 308.802 325.986 281.166 366.999C253.248 408.324 150.318 413.646 82.9201 360.111C15.5221 306.889 -16.6259 194.809 9.88206 132.821C36.3901 71.146 121.836 59.2493 165.546 73.9637C209.538 88.9911 212.076 130.63 236.892 190.113Z" fill="#EEF3F2" fill-opacity="0.51"/>
<path d="M1064.57 336.291C1012.72 295.928 931.566 252.531 937.45 197.744C943.446 142.496 1036.89 75.9808 1125.74 85.6231C1214.44 94.9734 1298.81 180.312 1304.16 253.994C1309.35 327.384 1235.41 389.577 1187.49 401.987C1139.16 414.274 1116.59 376.946 1064.57 336.291Z" fill="#EEF3F2" fill-opacity="0.65"/>
<path d="M647.14 358.374C716.598 322.52 806.635 254.478 854.777 294.407C903.287 334.743 909.535 483.458 846.692 580.835C784.217 678.213 652.653 724.661 579.888 686.361C507.49 648.062 493.525 524.609 510.798 461.456C528.438 397.896 577.315 394.229 647.14 358.374Z" fill="#EEF3F2" fill-opacity="0.26"/>
</svg>
